<svg width="21" height="20" viewBox="0 0 21 20" fill="none" xmlns="http://www.w3.org/2000/svg">
<path d="M15.5 5C15.5 7.76142 14.25 10 10.5 10C6.75 10 5.5 7.76142 5.5 5C5.5 2.23858 6.75 0 10.5 0C14.25 0 15.5 2.23858 15.5 5Z" fill="#6C7C93"/>
<path d="M0.5 18.4957C0.5 15.3009 4.49085 12.6109 7.67398 12.8835C8.53198 12.9569 9.47294 13 10.5 13C11.5271 13 12.468 12.9569 13.326 12.8835C16.5092 12.6109 20.5 15.3009 20.5 18.4957V18.4957C20.5 19.3241 19.8284 20 19 20H2C1.17157 20 0.5 19.3241 0.5 18.4957V18.4957Z" fill="#6C7C93"/>
</svg>
