<svg width="21" height="20" viewBox="0 0 21 20" fill="none" xmlns="http://www.w3.org/2000/svg">
<g clip-path="url(#clip0_657_5424)">
<path d="M20.3557 10.6272L11.0538 0.266441C10.7499 -0.0762812 10.2516 -0.0762812 9.94764 0.266441L0.644377 10.6272C0.340421 10.9699 0.465334 11.2488 0.92335 11.2488H2.31127C2.76929 11.2488 3.14403 11.6235 3.14403 12.0813V19.1578C3.14403 19.6157 3.51877 19.9903 3.97678 19.9903H7.4466C7.90461 19.9903 8.27935 19.6157 8.27935 19.1578V14.5789C8.27935 14.5553 8.28074 14.5331 8.28352 14.5095C8.28213 14.4859 8.27935 14.4637 8.27935 14.4402C8.27935 13.2136 9.27311 12.2201 10.5 12.2201C11.727 12.2201 12.7207 13.2136 12.7207 14.4402C12.7207 14.4637 12.7179 14.4859 12.7165 14.5095C12.7179 14.5317 12.7207 14.5553 12.7207 14.5789V19.1578C12.7207 19.6157 13.0955 19.9903 13.5535 19.9903H17.1621C17.6201 19.9903 17.9948 19.6157 17.9948 19.1578V12.0813C17.9948 11.6235 18.3696 11.2488 18.8276 11.2488H20.0767C20.5347 11.2488 20.661 10.9685 20.3557 10.6272Z" fill="#6C7C93"/>
</g>
<defs>
<clipPath id="clip0_657_5424">
<rect width="20" height="20" fill="white" transform="translate(0.5)"/>
</clipPath>
</defs>
</svg>
