<svg width="21" height="20" viewBox="0 0 21 20" fill="none" xmlns="http://www.w3.org/2000/svg">
<path d="M18.5 5L19.347 16.8575C19.4297 18.0152 18.5127 19 17.352 19H3.64795C2.48727 19 1.57034 18.0152 1.65304 16.8575L2.5 5M18.5 5H2.5M18.5 5L17.5 3L16.5 1H5.5L4 3L2.5 5" stroke="#6C7C93" stroke-width="2" stroke-linecap="round" stroke-linejoin="round"/>
<path fill-rule="evenodd" clip-rule="evenodd" d="M18.5 6H2.5V19H18.5V6ZM8.5 8C8.5 7.44772 8.05228 7 7.5 7C6.94772 7 6.5 7.44772 6.5 8V10C6.5 12.2091 8.29086 14 10.5 14C12.7091 14 14.5 12.2091 14.5 10V8C14.5 7.44772 14.0523 7 13.5 7C12.9477 7 12.5 7.44772 12.5 8V10C12.5 11.1046 11.6046 12 10.5 12C9.39543 12 8.5 11.1046 8.5 10V8Z" fill="#6C7C93"/>
</svg>
